<?xml version="1.0" encoding="utf-8"?>
<!-- Svg Vector Icons : http://www.onlinewebfonts.com/icon -->
<!DOCTYPE svg PUBLIC "-//W3C//DTD SVG 1.1//EN" "http://www.w3.org/Graphics/SVG/1.1/DTD/svg11.dtd">
<svg version="1.1" xmlns="http://www.w3.org/2000/svg" xmlns:xlink="http://www.w3.org/1999/xlink" x="0px" y="0px" viewBox="0 0 1000 1000" enable-background="new 0 0 1000 1000" xml:space="preserve">
<metadata> Svg Vector Icons : http://www.onlinewebfonts.com/icon </metadata>
<g><g transform="translate(0.000000,511.000000) scale(0.100000,-0.100000)"><path d="M2419.9,4147.6C1789.6,3069.7,100,128.7,100,107.7c0-14.1,546-977.2,1216.2-2139.5l1216.2-2111.4l2458.2,7l2460.6,4.7l1223.2,2118.4L9900,107.7l-56.3,93.7c-30.4,53.9-583.5,1007.7-1227.9,2123.1l-1169.3,2027l-2451.2,7l-2448.8,4.7L2419.9,4147.6z M8240.9,1973C8831.4,948.9,9314.2,103,9309.5,95.9c-2.4-9.4-489.8-855.3-1082.7-1881.7L7148.9-3651.1l-2162.9,4.7l-2162.9,7L1780.2-1835C1206.1-841.4,718.6,2.2,699.9,42l-35.2,72.7l1000.6,1731.8c550.7,951.4,1038.1,1792.7,1082.6,1867.7l82,133.6l2167.6-4.7l2167.6-7L8240.9,1973z"/></g></g>
</svg>